{
    "asset" : {
        "generator" : "Khronos glTF Blender I/O v1.6.16",
        "version" : "2.0"
    },
    "scene" : 0,
    "scenes" : [
        {
            "name" : "Scene",
            "nodes" : [
                1
            ]
        }
    ],
    "nodes" : [
        {
            "mesh" : 0,
            "name" : "Plane.010",
            "rotation" : [
                0.17838911712169647,
                0,
                0,
                0.9839600324630737
            ]
        },
        {
            "children" : [
                0
            ],
            "mesh" : 1,
            "name" : "Plane.008",
            "rotation" : [
                -0.17641979455947876,
                -0.1458011120557785,
                -0.026433320716023445,
                0.9730979204177856
            ],
            "scale" : [
                0.3460935354232788,
                0.3460935056209564,
                0.3460935354232788
            ]
        }
    ],
    "materials" : [
        {
            "doubleSided" : true,
            "name" : "Material.002",
            "pbrMetallicRoughness" : {
                "baseColorFactor" : [
                    0.7618077397346497,
                    0.7618077397346497,
                    0.7618077397346497,
                    1
                ],
                "metallicFactor" : 0,
                "roughnessFactor" : 0.5
            }
        },
        {
            "doubleSided" : true,
            "name" : "Material.001",
            "pbrMetallicRoughness" : {
                "baseColorFactor" : [
                    0.5559262037277222,
                    0.31479114294052124,
                    0.2006910741329193,
                    1
                ],
                "metallicFactor" : 0,
                "roughnessFactor" : 0.5
            }
        }
    ],
    "meshes" : [
        {
            "name" : "Plane.010",
            "primitives" : [
                {
                    "attributes" : {
                        "POSITION" : 0,
                        "NORMAL" : 1
                    },
                    "indices" : 2,
                    "material" : 0
                }
            ]
        },
        {
            "name" : "Plane.008",
            "primitives" : [
                {
                    "attributes" : {
                        "POSITION" : 3,
                        "NORMAL" : 4,
                        "TEXCOORD_0" : 5
                    },
                    "indices" : 6,
                    "material" : 1
                }
            ]
        }
    ],
    "accessors" : [
        {
            "bufferView" : 0,
            "componentType" : 5126,
            "count" : 113,
            "max" : [
                2.55391001701355,
                5.637712001800537,
                3.935784101486206
            ],
            "min" : [
                -2.29170298576355,
                1.927520990371704,
                -3.722973108291626
            ],
            "type" : "VEC3"
        },
        {
            "bufferView" : 1,
            "componentType" : 5126,
            "count" : 113,
            "type" : "VEC3"
        },
        {
            "bufferView" : 2,
            "componentType" : 5123,
            "count" : 666,
            "type" : "SCALAR"
        },
        {
            "bufferView" : 3,
            "componentType" : 5126,
            "count" : 3976,
            "max" : [
                2.9397006034851074,
                6.876565456390381,
                4.969069480895996
            ],
            "min" : [
                -2.627553939819336,
                -1.448934555053711,
                -3.217121124267578
            ],
            "type" : "VEC3"
        },
        {
            "bufferView" : 4,
            "componentType" : 5126,
            "count" : 3976,
            "type" : "VEC3"
        },
        {
            "bufferView" : 5,
            "componentType" : 5126,
            "count" : 3976,
            "type" : "VEC2"
        },
        {
            "bufferView" : 6,
            "componentType" : 5123,
            "count" : 15192,
            "type" : "SCALAR"
        }
    ],
    "bufferViews" : [
        {
            "buffer" : 0,
            "byteLength" : 1356,
            "byteOffset" : 0
        },
        {
            "buffer" : 0,
            "byteLength" : 1356,
            "byteOffset" : 1356
        },
        {
            "buffer" : 0,
            "byteLength" : 1332,
            "byteOffset" : 2712
        },
        {
            "buffer" : 0,
            "byteLength" : 47712,
            "byteOffset" : 4044
        },
        {
            "buffer" : 0,
            "byteLength" : 47712,
            "byteOffset" : 51756
        },
        {
            "buffer" : 0,
            "byteLength" : 31808,
            "byteOffset" : 99468
        },
        {
            "buffer" : 0,
            "byteLength" : 30384,
            "byteOffset" : 131276
        }
    ],
    "buffers" : [
        {
            "byteLength" : 161660,
            "uri" : "data:application/octet-stream;base64,"
        }
    ]
}
