{
    "asset" : {
        "generator" : "Khronos glTF Blender I/O v1.6.16",
        "version" : "2.0"
    },
    "scene" : 0,
    "scenes" : [
        {
            "name" : "Scene",
            "nodes" : [
                0,
                1,
                2,
                3
            ]
        }
    ],
    "nodes" : [
        {
            "mesh" : 0,
            "name" : "tail",
            "rotation" : [
                0.7071068286895752,
                0,
                0,
                0.7071068286895752
            ],
            "scale" : [
                0.16005009412765503,
                0.16005009412765503,
                0.16005009412765503
            ]
        },
        {
            "mesh" : 1,
            "name" : "body",
            "rotation" : [
                0.7071068286895752,
                0,
                0,
                0.7071068286895752
            ],
            "scale" : [
                0.16005009412765503,
                0.16005009412765503,
                0.16005009412765503
            ]
        },
        {
            "mesh" : 2,
            "name" : "hair",
            "rotation" : [
                0.7071068286895752,
                0,
                0,
                0.7071068286895752
            ],
            "scale" : [
                0.16005009412765503,
                0.16005009412765503,
                0.16005009412765503
            ]
        },
        {
            "mesh" : 3,
            "name" : "mane",
            "rotation" : [
                0.7071068286895752,
                0,
                0,
                0.7071068286895752
            ],
            "scale" : [
                0.16005009412765503,
                0.16005009412765503,
                0.16005009412765503
            ]
        }
    ],
    "materials" : [
        {
            "doubleSided" : true,
            "name" : "Tex_1426.001",
            "pbrMetallicRoughness" : {
                "baseColorTexture" : {
                    "index" : 0
                },
                "metallicFactor" : 0,
                "roughnessFactor" : 0.8945907354354858
            }
        }
    ],
    "meshes" : [
        {
            "name" : "celestia.002",
            "primitives" : [
                {
                    "attributes" : {
                        "POSITION" : 0,
                        "NORMAL" : 1,
                        "TEXCOORD_0" : 2
                    },
                    "indices" : 3,
                    "material" : 0
                }
            ]
        },
        {
            "name" : "celestia.003",
            "primitives" : [
                {
                    "attributes" : {
                        "POSITION" : 4,
                        "NORMAL" : 5,
                        "TEXCOORD_0" : 6
                    },
                    "indices" : 7,
                    "material" : 0
                }
            ]
        },
        {
            "name" : "celestia.004",
            "primitives" : [
                {
                    "attributes" : {
                        "POSITION" : 8,
                        "NORMAL" : 9,
                        "TEXCOORD_0" : 10
                    },
                    "indices" : 11,
                    "material" : 0
                }
            ]
        },
        {
            "name" : "celestia.005",
            "primitives" : [
                {
                    "attributes" : {
                        "POSITION" : 12,
                        "NORMAL" : 13,
                        "TEXCOORD_0" : 14
                    },
                    "indices" : 15,
                    "material" : 0
                }
            ]
        }
    ],
    "textures" : [
        {
            "sampler" : 0,
            "source" : 0
        }
    ],
    "images" : [
        {
            "bufferView" : 4,
            "mimeType" : "image/jpeg",
            "name" : "Celestria"
        }
    ],
    "accessors" : [
        {
            "bufferView" : 0,
            "componentType" : 5126,
            "count" : 248,
            "max" : [
                30.116600036621094,
                -7.917699813842773,
                -4.198500156402588
            ],
            "min" : [
                -12.482099533081055,
                -95.52369689941406,
                -83.5114974975586
            ],
            "type" : "VEC3"
        },
        {
            "bufferView" : 1,
            "componentType" : 5126,
            "count" : 248,
            "type" : "VEC3"
        },
        {
            "bufferView" : 2,
            "componentType" : 5126,
            "count" : 248,
            "type" : "VEC2"
        },
        {
            "bufferView" : 3,
            "componentType" : 5123,
            "count" : 696,
            "type" : "SCALAR"
        },
        {
            "bufferView" : 5,
            "componentType" : 5126,
            "count" : 1332,
            "max" : [
                20.837499618530273,
                46.269195556640625,
                -0.265500009059906
            ],
            "min" : [
                -20.837499618530273,
                -46.21329879760742,
                -135.5675048828125
            ],
            "type" : "VEC3"
        },
        {
            "bufferView" : 6,
            "componentType" : 5126,
            "count" : 1332,
            "type" : "VEC3"
        },
        {
            "bufferView" : 7,
            "componentType" : 5126,
            "count" : 1332,
            "type" : "VEC2"
        },
        {
            "bufferView" : 8,
            "componentType" : 5123,
            "count" : 5601,
            "type" : "SCALAR"
        },
        {
            "bufferView" : 9,
            "componentType" : 5126,
            "count" : 164,
            "max" : [
                11.020397186279297,
                43.07369613647461,
                -80.49296569824219
            ],
            "min" : [
                -22.696413040161133,
                6.817895889282227,
                -118.96170806884766
            ],
            "type" : "VEC3"
        },
        {
            "bufferView" : 10,
            "componentType" : 5126,
            "count" : 164,
            "type" : "VEC3"
        },
        {
            "bufferView" : 11,
            "componentType" : 5126,
            "count" : 164,
            "type" : "VEC2"
        },
        {
            "bufferView" : 12,
            "componentType" : 5123,
            "count" : 570,
            "type" : "SCALAR"
        },
        {
            "bufferView" : 13,
            "componentType" : 5126,
            "count" : 263,
            "max" : [
                13.110954284667969,
                26.499000549316406,
                -75.9319076538086
            ],
            "min" : [
                -11.28239631652832,
                -74.05367279052734,
                -151.68296813964844
            ],
            "type" : "VEC3"
        },
        {
            "bufferView" : 14,
            "componentType" : 5126,
            "count" : 263,
            "type" : "VEC3"
        },
        {
            "bufferView" : 15,
            "componentType" : 5126,
            "count" : 263,
            "type" : "VEC2"
        },
        {
            "bufferView" : 16,
            "componentType" : 5123,
            "count" : 954,
            "type" : "SCALAR"
        }
    ],
    "bufferViews" : [
        {
            "buffer" : 0,
            "byteLength" : 2976,
            "byteOffset" : 0
        },
        {
            "buffer" : 0,
            "byteLength" : 2976,
            "byteOffset" : 2976
        },
        {
            "buffer" : 0,
            "byteLength" : 1984,
            "byteOffset" : 5952
        },
        {
            "buffer" : 0,
            "byteLength" : 1392,
            "byteOffset" : 7936
        },
        {
            "buffer" : 0,
            "byteLength" : 95683,
            "byteOffset" : 9328
        },
        {
            "buffer" : 0,
            "byteLength" : 15984,
            "byteOffset" : 105012
        },
        {
            "buffer" : 0,
            "byteLength" : 15984,
            "byteOffset" : 120996
        },
        {
            "buffer" : 0,
            "byteLength" : 10656,
            "byteOffset" : 136980
        },
        {
            "buffer" : 0,
            "byteLength" : 11202,
            "byteOffset" : 147636
        },
        {
            "buffer" : 0,
            "byteLength" : 1968,
            "byteOffset" : 158840
        },
        {
            "buffer" : 0,
            "byteLength" : 1968,
            "byteOffset" : 160808
        },
        {
            "buffer" : 0,
            "byteLength" : 1312,
            "byteOffset" : 162776
        },
        {
            "buffer" : 0,
            "byteLength" : 1140,
            "byteOffset" : 164088
        },
        {
            "buffer" : 0,
            "byteLength" : 3156,
            "byteOffset" : 165228
        },
        {
            "buffer" : 0,
            "byteLength" : 3156,
            "byteOffset" : 168384
        },
        {
            "buffer" : 0,
            "byteLength" : 2104,
            "byteOffset" : 171540
        },
        {
            "buffer" : 0,
            "byteLength" : 1908,
            "byteOffset" : 173644
        }
    ],
    "samplers" : [
        {
            "magFilter" : 9729,
            "minFilter" : 9987
        }
    ],
    "buffers" : [
        {
            "byteLength" : 175552,
            "uri" : "data:application/octet-stream;base64,"
        }
    ]
}
