{
    "asset" : {
        "generator" : "Khronos glTF Blender I/O v1.6.16",
        "version" : "2.0"
    },
    "scene" : 0,
    "scenes" : [
        {
            "name" : "Scene",
            "nodes" : [
                0
            ]
        }
    ],
    "nodes" : [
        {
            "mesh" : 0,
            "name" : "Torus"
        }
    ],
    "materials" : [
        {
            "doubleSided" : true,
            "name" : "FloaterRed",
            "pbrMetallicRoughness" : {
                "baseColorFactor" : [
                    0.8000000715255737,
                    0.030947890132665634,
                    0.03831929340958595,
                    1
                ],
                "metallicFactor" : 0,
                "roughnessFactor" : 0.4000000059604645
            }
        },
        {
            "doubleSided" : true,
            "name" : "floaterWhite",
            "pbrMetallicRoughness" : {
                "baseColorFactor" : [
                    0.800000011920929,
                    0.800000011920929,
                    0.800000011920929,
                    1
                ],
                "metallicFactor" : 0,
                "roughnessFactor" : 0.5
            }
        }
    ],
    "meshes" : [
        {
            "name" : "Torus",
            "primitives" : [
                {
                    "attributes" : {
                        "POSITION" : 0,
                        "NORMAL" : 1,
                        "TEXCOORD_0" : 2
                    },
                    "indices" : 3,
                    "material" : 0
                },
                {
                    "attributes" : {
                        "POSITION" : 4,
                        "NORMAL" : 5,
                        "TEXCOORD_0" : 6
                    },
                    "indices" : 7,
                    "material" : 1
                }
            ]
        }
    ],
    "accessors" : [
        {
            "bufferView" : 0,
            "componentType" : 5126,
            "count" : 192,
            "max" : [
                1.25,
                0.25,
                1.25
            ],
            "min" : [
                -1.25,
                -0.25,
                -1.0825319290161133
            ],
            "type" : "VEC3"
        },
        {
            "bufferView" : 1,
            "componentType" : 5126,
            "count" : 192,
            "type" : "VEC3"
        },
        {
            "bufferView" : 2,
            "componentType" : 5126,
            "count" : 192,
            "type" : "VEC2"
        },
        {
            "bufferView" : 3,
            "componentType" : 5123,
            "count" : 288,
            "type" : "SCALAR"
        },
        {
            "bufferView" : 4,
            "componentType" : 5126,
            "count" : 192,
            "max" : [
                1.25,
                0.25,
                1.0825319290161133
            ],
            "min" : [
                -1.25,
                -0.25,
                -1.25
            ],
            "type" : "VEC3"
        },
        {
            "bufferView" : 5,
            "componentType" : 5126,
            "count" : 192,
            "type" : "VEC3"
        },
        {
            "bufferView" : 6,
            "componentType" : 5126,
            "count" : 192,
            "type" : "VEC2"
        },
        {
            "bufferView" : 7,
            "componentType" : 5123,
            "count" : 288,
            "type" : "SCALAR"
        }
    ],
    "bufferViews" : [
        {
            "buffer" : 0,
            "byteLength" : 2304,
            "byteOffset" : 0
        },
        {
            "buffer" : 0,
            "byteLength" : 2304,
            "byteOffset" : 2304
        },
        {
            "buffer" : 0,
            "byteLength" : 1536,
            "byteOffset" : 4608
        },
        {
            "buffer" : 0,
            "byteLength" : 576,
            "byteOffset" : 6144
        },
        {
            "buffer" : 0,
            "byteLength" : 2304,
            "byteOffset" : 6720
        },
        {
            "buffer" : 0,
            "byteLength" : 2304,
            "byteOffset" : 9024
        },
        {
            "buffer" : 0,
            "byteLength" : 1536,
            "byteOffset" : 11328
        },
        {
            "buffer" : 0,
            "byteLength" : 576,
            "byteOffset" : 12864
        }
    ],
    "buffers" : [
        {
            "byteLength" : 13440,
            "uri" : "data:application/octet-stream;base64,"
        }
    ]
}
