{
    "asset" : {
        "generator" : "Khronos glTF Blender I/O v1.6.16",
        "version" : "2.0"
    },
    "scene" : 0,
    "scenes" : [
        {
            "name" : "Scene",
            "nodes" : [
                0
            ]
        }
    ],
    "nodes" : [
        {
            "mesh" : 0,
            "name" : "Cube",
            "scale" : [
                1,
                8.75285816192627,
                1
            ]
        }
    ],
    "materials" : [
        {
            "doubleSided" : true,
            "name" : "TreeBrown",
            "pbrMetallicRoughness" : {
                "baseColorFactor" : [
                    0.13757675886154175,
                    0.08959073573350906,
                    0.013243058696389198,
                    1
                ],
                "metallicFactor" : 0,
                "roughnessFactor" : 0.5
            }
        },
        {
            "doubleSided" : true,
            "name" : "TreeWhite",
            "pbrMetallicRoughness" : {
                "baseColorFactor" : [
                    1,
                    0.9576399922370911,
                    0.9893096089363098,
                    1
                ],
                "metallicFactor" : 0,
                "roughnessFactor" : 0.5
            }
        },
        {
            "doubleSided" : true,
            "name" : "TreeGreen",
            "pbrMetallicRoughness" : {
                "baseColorFactor" : [
                    0.009744602255523205,
                    0.4575314223766327,
                    0.0058811865746974945,
                    1
                ],
                "metallicFactor" : 0,
                "roughnessFactor" : 0.4000000059604645
            }
        }
    ],
    "meshes" : [
        {
            "name" : "Cube.015",
            "primitives" : [
                {
                    "attributes" : {
                        "POSITION" : 0,
                        "NORMAL" : 1,
                        "TEXCOORD_0" : 2
                    },
                    "indices" : 3,
                    "material" : 0
                },
                {
                    "attributes" : {
                        "POSITION" : 4,
                        "NORMAL" : 5,
                        "TEXCOORD_0" : 6
                    },
                    "indices" : 7,
                    "material" : 1
                },
                {
                    "attributes" : {
                        "POSITION" : 8,
                        "NORMAL" : 9,
                        "TEXCOORD_0" : 10
                    },
                    "indices" : 11,
                    "material" : 2
                }
            ]
        }
    ],
    "accessors" : [
        {
            "bufferView" : 0,
            "componentType" : 5126,
            "count" : 56,
            "max" : [
                4.241563320159912,
                0.8107061386108398,
                4.354813575744629
            ],
            "min" : [
                -3.8243398666381836,
                -1.8657808303833008,
                -4.400247573852539
            ],
            "type" : "VEC3"
        },
        {
            "bufferView" : 1,
            "componentType" : 5126,
            "count" : 56,
            "type" : "VEC3"
        },
        {
            "bufferView" : 2,
            "componentType" : 5126,
            "count" : 56,
            "type" : "VEC2"
        },
        {
            "bufferView" : 3,
            "componentType" : 5123,
            "count" : 96,
            "type" : "SCALAR"
        },
        {
            "bufferView" : 4,
            "componentType" : 5126,
            "count" : 217,
            "max" : [
                13.053152084350586,
                3.393548011779785,
                13.09477424621582
            ],
            "min" : [
                -13.652456283569336,
                0.09793972969055176,
                -15.124581336975098
            ],
            "type" : "VEC3"
        },
        {
            "bufferView" : 5,
            "componentType" : 5126,
            "count" : 217,
            "type" : "VEC3"
        },
        {
            "bufferView" : 6,
            "componentType" : 5126,
            "count" : 217,
            "type" : "VEC2"
        },
        {
            "bufferView" : 7,
            "componentType" : 5123,
            "count" : 564,
            "type" : "SCALAR"
        },
        {
            "bufferView" : 8,
            "componentType" : 5126,
            "count" : 63,
            "max" : [
                12.378144264221191,
                2.2839860916137695,
                10.907885551452637
            ],
            "min" : [
                -12.562973976135254,
                0.09793972969055176,
                -15.124581336975098
            ],
            "type" : "VEC3"
        },
        {
            "bufferView" : 9,
            "componentType" : 5126,
            "count" : 63,
            "type" : "VEC3"
        },
        {
            "bufferView" : 10,
            "componentType" : 5126,
            "count" : 63,
            "type" : "VEC2"
        },
        {
            "bufferView" : 11,
            "componentType" : 5123,
            "count" : 75,
            "type" : "SCALAR"
        }
    ],
    "bufferViews" : [
        {
            "buffer" : 0,
            "byteLength" : 672,
            "byteOffset" : 0
        },
        {
            "buffer" : 0,
            "byteLength" : 672,
            "byteOffset" : 672
        },
        {
            "buffer" : 0,
            "byteLength" : 448,
            "byteOffset" : 1344
        },
        {
            "buffer" : 0,
            "byteLength" : 192,
            "byteOffset" : 1792
        },
        {
            "buffer" : 0,
            "byteLength" : 2604,
            "byteOffset" : 1984
        },
        {
            "buffer" : 0,
            "byteLength" : 2604,
            "byteOffset" : 4588
        },
        {
            "buffer" : 0,
            "byteLength" : 1736,
            "byteOffset" : 7192
        },
        {
            "buffer" : 0,
            "byteLength" : 1128,
            "byteOffset" : 8928
        },
        {
            "buffer" : 0,
            "byteLength" : 756,
            "byteOffset" : 10056
        },
        {
            "buffer" : 0,
            "byteLength" : 756,
            "byteOffset" : 10812
        },
        {
            "buffer" : 0,
            "byteLength" : 504,
            "byteOffset" : 11568
        },
        {
            "buffer" : 0,
            "byteLength" : 150,
            "byteOffset" : 12072
        }
    ],
    "buffers" : [
        {
            "byteLength" : 12224,
            "uri" : "data:application/octet-stream;base64,"
        }
    ]
}
