{
    "asset" : {
        "generator" : "Khronos glTF Blender I/O v1.6.16",
        "version" : "2.0"
    },
    "scene" : 0,
    "scenes" : [
        {
            "name" : "Scene",
            "nodes" : [
                0
            ]
        }
    ],
    "nodes" : [
        {
            "mesh" : 0,
            "name" : "Cube",
            "scale" : [
                1,
                8.75285816192627,
                1
            ]
        }
    ],
    "materials" : [
        {
            "doubleSided" : true,
            "name" : "TreeBrown",
            "pbrMetallicRoughness" : {
                "baseColorFactor" : [
                    0.13757675886154175,
                    0.08959073573350906,
                    0.013243058696389198,
                    1
                ],
                "metallicFactor" : 0,
                "roughnessFactor" : 0.5
            }
        }
    ],
    "meshes" : [
        {
            "name" : "Cube.015",
            "primitives" : [
                {
                    "attributes" : {
                        "POSITION" : 0,
                        "NORMAL" : 1,
                        "TEXCOORD_0" : 2
                    },
                    "indices" : 3,
                    "material" : 0
                }
            ]
        }
    ],
    "accessors" : [
        {
            "bufferView" : 0,
            "componentType" : 5126,
            "count" : 1328,
            "max" : [
                10.281972885131836,
                2.896131992340088,
                9.58513069152832
            ],
            "min" : [
                -11.203461647033691,
                -0.0786907747387886,
                -10.443370819091797
            ],
            "type" : "VEC3"
        },
        {
            "bufferView" : 1,
            "componentType" : 5126,
            "count" : 1328,
            "type" : "VEC3"
        },
        {
            "bufferView" : 2,
            "componentType" : 5126,
            "count" : 1328,
            "type" : "VEC2"
        },
        {
            "bufferView" : 3,
            "componentType" : 5123,
            "count" : 2190,
            "type" : "SCALAR"
        }
    ],
    "bufferViews" : [
        {
            "buffer" : 0,
            "byteLength" : 15936,
            "byteOffset" : 0
        },
        {
            "buffer" : 0,
            "byteLength" : 15936,
            "byteOffset" : 15936
        },
        {
            "buffer" : 0,
            "byteLength" : 10624,
            "byteOffset" : 31872
        },
        {
            "buffer" : 0,
            "byteLength" : 4380,
            "byteOffset" : 42496
        }
    ],
    "buffers" : [
        {
            "byteLength" : 46876,
            "uri" : "data:application/octet-stream;base64,"
        }
    ]
}
