{
    "asset" : {
        "generator" : "Khronos glTF Blender I/O v1.6.16",
        "version" : "2.0"
    },
    "scene" : 0,
    "scenes" : [
        {
            "name" : "Scene",
            "nodes" : [
                0,
                1
            ]
        }
    ],
    "nodes" : [
        {
            "mesh" : 0,
            "name" : "umbrellaTop",
            "rotation" : [
                0,
                0.25830039381980896,
                0,
                0.9660646319389343
            ],
            "translation" : [
                -0.008888721466064453,
                0.011690974235534668,
                0.03497028350830078
            ]
        },
        {
            "mesh" : 1,
            "name" : "umbrellaLeg",
            "scale" : [
                0.09602826833724976,
                5.005781650543213,
                0.09602826833724976
            ]
        }
    ],
    "materials" : [
        {
            "doubleSided" : true,
            "name" : "umbrellaColor",
            "pbrMetallicRoughness" : {
                "baseColorTexture" : {
                    "index" : 0
                },
                "roughnessFactor" : 0.5935065150260925
            }
        },
        {
            "doubleSided" : true,
            "name" : "umbrelaBlack",
            "pbrMetallicRoughness" : {
                "baseColorFactor" : [
                    0.006370175629854202,
                    0.006370175629854202,
                    0.006370175629854202,
                    1
                ],
                "metallicFactor" : 0,
                "roughnessFactor" : 0.5
            }
        }
    ],
    "meshes" : [
        {
            "name" : "umbrellaTop",
            "primitives" : [
                {
                    "attributes" : {
                        "POSITION" : 0,
                        "NORMAL" : 1,
                        "TEXCOORD_0" : 2
                    },
                    "indices" : 3,
                    "material" : 0
                }
            ]
        },
        {
            "name" : "Cylinder",
            "primitives" : [
                {
                    "attributes" : {
                        "POSITION" : 4,
                        "NORMAL" : 5,
                        "TEXCOORD_0" : 6
                    },
                    "indices" : 7,
                    "material" : 1
                }
            ]
        }
    ],
    "textures" : [
        {
            "sampler" : 0,
            "source" : 0
        }
    ],
    "images" : [
        {
            "bufferView" : 4,
            "mimeType" : "image/png",
            "name" : "umbrella"
        }
    ],
    "accessors" : [
        {
            "bufferView" : 0,
            "componentType" : 5126,
            "count" : 387,
            "max" : [
                5.676504611968994,
                10.533673286437988,
                5.434992790222168
            ],
            "min" : [
                -5.492668151855469,
                7.651549816131592,
                -5.522887229919434
            ],
            "type" : "VEC3"
        },
        {
            "bufferView" : 1,
            "componentType" : 5126,
            "count" : 387,
            "type" : "VEC3"
        },
        {
            "bufferView" : 2,
            "componentType" : 5126,
            "count" : 387,
            "type" : "VEC2"
        },
        {
            "bufferView" : 3,
            "componentType" : 5123,
            "count" : 1395,
            "type" : "SCALAR"
        },
        {
            "bufferView" : 5,
            "componentType" : 5126,
            "count" : 36,
            "max" : [
                0.866025447845459,
                2.057013750076294,
                1
            ],
            "min" : [
                -0.866025447845459,
                0.057013750076293945,
                -1
            ],
            "type" : "VEC3"
        },
        {
            "bufferView" : 6,
            "componentType" : 5126,
            "count" : 36,
            "type" : "VEC3"
        },
        {
            "bufferView" : 7,
            "componentType" : 5126,
            "count" : 36,
            "type" : "VEC2"
        },
        {
            "bufferView" : 8,
            "componentType" : 5123,
            "count" : 60,
            "type" : "SCALAR"
        }
    ],
    "bufferViews" : [
        {
            "buffer" : 0,
            "byteLength" : 4644,
            "byteOffset" : 0
        },
        {
            "buffer" : 0,
            "byteLength" : 4644,
            "byteOffset" : 4644
        },
        {
            "buffer" : 0,
            "byteLength" : 3096,
            "byteOffset" : 9288
        },
        {
            "buffer" : 0,
            "byteLength" : 2790,
            "byteOffset" : 12384
        },
        {
            "buffer" : 0,
            "byteLength" : 12438,
            "byteOffset" : 15176
        },
        {
            "buffer" : 0,
            "byteLength" : 432,
            "byteOffset" : 27616
        },
        {
            "buffer" : 0,
            "byteLength" : 432,
            "byteOffset" : 28048
        },
        {
            "buffer" : 0,
            "byteLength" : 288,
            "byteOffset" : 28480
        },
        {
            "buffer" : 0,
            "byteLength" : 120,
            "byteOffset" : 28768
        }
    ],
    "samplers" : [
        {
            "magFilter" : 9729,
            "minFilter" : 9987
        }
    ],
    "buffers" : [
        {
            "byteLength" : 28888,
            "uri" : "data:application/octet-stream;base64,"
        }
    ]
}
